<svg width="25" height="25" viewBox="0 0 25 25" fill="none" xmlns="http://www.w3.org/2000/svg">
<g clip-path="url(#clip0_327_1581)">
<path d="M18.4133 10.02C17.2146 8.02694 15.5662 6.34203 13.5999 5.09997C12.7139 4.53839 11.7038 4.20226 10.6579 4.12091C9.61204 4.03957 8.56216 4.21548 7.59992 4.6333C6.75826 5.0303 6.02588 5.62621 5.46604 6.36957C4.90619 7.11293 4.53571 7.9814 4.38659 8.89997C4.33325 9.22663 4.28659 9.56663 4.24659 9.8333H3.57992C3.35149 9.83065 3.12481 9.87336 2.91301 9.95895C2.70121 10.0445 2.50849 10.1713 2.34603 10.3319C2.18357 10.4925 2.05459 10.6837 1.96657 10.8945C1.87855 11.1054 1.83324 11.3315 1.83325 11.56V17.26C1.83325 17.412 1.89366 17.5579 2.00118 17.6654C2.1087 17.7729 2.25453 17.8333 2.40659 17.8333H3.55992V17.5733C3.55822 16.956 3.70509 16.3474 3.98815 15.7988C4.2712 15.2503 4.68212 14.7779 5.18618 14.4216C5.69025 14.0652 6.27267 13.8355 6.88424 13.7516C7.49581 13.6678 8.11857 13.7324 8.69992 13.94L8.03325 14.6066C7.50088 14.5087 6.95201 14.5547 6.44336 14.7399C5.93472 14.9251 5.48474 15.2427 5.13992 15.66C4.96213 15.8383 4.81963 16.0487 4.71992 16.28C4.51479 16.6769 4.40092 17.1147 4.38662 17.5613C4.37233 18.0079 4.45798 18.452 4.63732 18.8613C4.81665 19.2705 5.08514 19.6346 5.42317 19.9268C5.7612 20.219 6.16023 20.432 6.59113 20.5503C7.02202 20.6685 7.47388 20.689 7.91372 20.6103C8.35355 20.5316 8.77024 20.3556 9.13335 20.0952C9.49646 19.8348 9.79682 19.4966 10.0125 19.1052C10.2282 18.7139 10.3537 18.2794 10.3799 17.8333H14.0333V17.5733C14.0319 16.9568 14.1788 16.349 14.4615 15.8012C14.7442 15.2533 15.1544 14.7814 15.6576 14.4253C16.1608 14.0691 16.7422 13.8391 17.3529 13.7547C17.9636 13.6702 18.5856 13.7338 19.1666 13.94L18.4999 14.6066C17.9675 14.5087 17.4187 14.5547 16.91 14.7399C16.4014 14.9251 15.9514 15.2427 15.6066 15.66C15.4288 15.8383 15.2863 16.0487 15.1866 16.28C14.9843 16.6769 14.8729 17.1139 14.8605 17.5592C14.8481 18.0045 14.9351 18.447 15.1151 18.8545C15.2951 19.2621 15.5636 19.6244 15.9011 19.9152C16.2386 20.206 16.6366 20.418 17.0662 20.5358C17.4959 20.6535 17.9464 20.6741 18.385 20.5961C18.8236 20.518 19.2393 20.3432 19.6019 20.0845C19.9646 19.8257 20.265 19.4894 20.4815 19.1C20.6979 18.7106 20.8249 18.2779 20.8533 17.8333H22.5933C22.7453 17.8333 22.8911 17.7729 22.9987 17.6654C23.1062 17.5579 23.1666 17.412 23.1666 17.26V16.0733C23.1615 14.6791 22.6912 13.3264 21.8301 12.2298C20.969 11.1333 19.7665 10.3555 18.4133 10.02ZM8.49992 9.8333H5.83325C5.83325 9.59997 5.89992 9.35997 5.93992 9.11997C6.05191 8.39113 6.34749 7.70276 6.79883 7.11963C7.25017 6.53651 7.84244 6.07779 8.51992 5.78663L8.49992 9.8333ZM7.40659 19.4066C7.07695 19.4066 6.75472 19.3089 6.48063 19.1258C6.20655 18.9426 5.99293 18.6823 5.86679 18.3778C5.74064 18.0732 5.70763 17.7381 5.77194 17.4148C5.83625 17.0915 5.99499 16.7945 6.22807 16.5615C6.46116 16.3284 6.75813 16.1696 7.08144 16.1053C7.40474 16.041 7.73985 16.074 8.04439 16.2002C8.34893 16.3263 8.60923 16.5399 8.79237 16.814C8.9755 17.0881 9.07325 17.4103 9.07325 17.74C9.07325 18.182 8.89766 18.6059 8.5851 18.9185C8.27254 19.231 7.84861 19.4066 7.40659 19.4066ZM13.1666 13.1666H11.1666V11.8333H13.1666V13.1666ZM9.16659 9.8333V5.47997C10.4192 5.30946 11.6921 5.58055 12.7666 6.24663C14.2429 7.17467 15.5135 8.39532 16.4999 9.8333H9.16659ZM17.8733 19.4066C17.5436 19.4066 17.2214 19.3089 16.9473 19.1258C16.6732 18.9426 16.4596 18.6823 16.3335 18.3778C16.2073 18.0732 16.1743 17.7381 16.2386 17.4148C16.3029 17.0915 16.4617 16.7945 16.6947 16.5615C16.9278 16.3284 17.2248 16.1696 17.5481 16.1053C17.8714 16.041 18.2065 16.074 18.5111 16.2002C18.8156 16.3263 19.0759 16.5399 19.259 16.814C19.4422 17.0881 19.5399 17.4103 19.5399 17.74C19.5399 18.182 19.3643 18.6059 19.0518 18.9185C18.7392 19.231 18.3153 19.4066 17.8733 19.4066Z"/>
</g>
<defs>
<clipPath id="clip0_327_1581">
<rect width="24" height="24" fill="white" transform="translate(0.5 0.5)"/>
</clipPath>
</defs>
</svg>
