<svg width="24" height="24" viewBox="0 0 24 24" fill="none" xmlns="http://www.w3.org/2000/svg">
<g clip-path="url(#clip0_131_2114)">
<path d="M11.9999 11.3333C12.9229 11.3333 13.8252 11.0596 14.5926 10.5469C15.36 10.0341 15.9581 9.30525 16.3114 8.45253C16.6646 7.5998 16.757 6.66149 16.5769 5.75625C16.3969 4.851 15.9524 4.01948 15.2998 3.36684C14.6471 2.71419 13.8156 2.26974 12.9103 2.08967C12.0051 1.90961 11.0668 2.00202 10.2141 2.35523C9.36134 2.70844 8.63251 3.30658 8.11973 4.07401C7.60695 4.84144 7.33325 5.74369 7.33325 6.66667C7.33325 7.90435 7.82492 9.09133 8.70009 9.9665C9.57526 10.8417 10.7622 11.3333 11.9999 11.3333ZM11.9999 3.33334C12.6592 3.33334 13.3037 3.52883 13.8518 3.8951C14.4 4.26137 14.8272 4.78197 15.0795 5.39106C15.3318 6.00014 15.3978 6.67037 15.2692 7.31697C15.1406 7.96357 14.8231 8.55752 14.3569 9.02369C13.8908 9.48987 13.2968 9.80734 12.6502 9.93595C12.0036 10.0646 11.3334 9.99856 10.7243 9.74627C10.1152 9.49398 9.59462 9.06673 9.22835 8.51857C8.86208 7.97041 8.66659 7.32594 8.66659 6.66667C8.66659 5.78261 9.01777 4.93477 9.6429 4.30965C10.268 3.68452 11.1159 3.33334 11.9999 3.33334Z" fill="black"/>
<path d="M20.3133 16.2467C19.2441 15.1167 17.9558 14.2166 16.5269 13.6015C15.0981 12.9863 13.5589 12.6691 12.0033 12.6691C10.4476 12.6691 8.90838 12.9863 7.47956 13.6015C6.05074 14.2166 4.76238 15.1167 3.69325 16.2467C3.46146 16.4942 3.33273 16.8208 3.33325 17.16V20.6667C3.33325 21.0203 3.47373 21.3594 3.72378 21.6095C3.97383 21.8595 4.31296 22 4.66659 22H19.3333C19.6869 22 20.026 21.8595 20.2761 21.6095C20.5261 21.3594 20.6666 21.0203 20.6666 20.6667V17.16C20.6689 16.8217 20.5426 16.4953 20.3133 16.2467ZM19.3333 20.6667H4.66659V17.1533C5.61141 16.1584 6.74878 15.3662 8.00949 14.8248C9.2702 14.2835 10.6279 14.0043 11.9999 14.0043C13.372 14.0043 14.7296 14.2835 15.9903 14.8248C17.2511 15.3662 18.3884 16.1584 19.3333 17.1533V20.6667Z" fill="black"/>
</g>
<defs>
<clipPath id="clip0_131_2114">
<rect width="24" height="24" fill="white"/>
</clipPath>
</defs>
</svg>
