<svg width="63" height="43" viewBox="0 0 63 43" fill="none" xmlns="http://www.w3.org/2000/svg">
<path d="M22.9369 42.2938C22.5465 42.6844 21.9135 42.6846 21.5228 42.2943L0.500952 21.2926C0.159647 20.8941 -0.0186987 20.3814 0.00155371 19.8571C0.0218061 19.3328 0.239165 18.8354 0.610196 18.4644C0.981226 18.0933 1.4786 17.876 2.00292 17.8557C2.52725 17.8355 3.03991 18.0138 3.43845 18.3551L21.4817 36.3984C21.8721 36.7888 22.505 36.789 22.8956 36.3988L58.8343 0.500952C59.2328 0.159647 59.7455 -0.0186987 60.2698 0.00155371C60.7941 0.0218061 61.2915 0.239165 61.6625 0.610196C62.0336 0.981226 62.2509 1.4786 62.2712 2.00292C62.2914 2.52725 62.1131 3.03991 61.7718 3.43845L22.9369 42.2938Z" fill="white"/>
</svg>
