<svg width="25" height="25" viewBox="0 0 25 25" fill="none" xmlns="http://www.w3.org/2000/svg">
<g clip-path="url(#clip0_327_1587)">
<path d="M22.2133 10.9801L19.98 10.3134C19.8256 9.77431 19.6132 9.2535 19.3466 8.7601L20.44 6.71344C20.481 6.63618 20.496 6.54776 20.4828 6.46129C20.4696 6.37482 20.4289 6.29492 20.3666 6.23344L18.7733 4.63344C18.7118 4.57121 18.6319 4.53048 18.5455 4.51727C18.459 4.50406 18.3706 4.51908 18.2933 4.5601L16.26 5.64677C15.7617 5.36721 15.2341 5.14363 14.6866 4.9801L14.02 2.77344C13.9918 2.69211 13.9385 2.62183 13.8678 2.57272C13.7971 2.5236 13.7127 2.49817 13.6266 2.5001H11.3733C11.2867 2.50051 11.2026 2.52853 11.133 2.58008C11.0635 2.63164 11.0122 2.70405 10.9866 2.78677L10.32 4.98677C9.76799 5.14942 9.23582 5.37302 8.73331 5.65344L6.73331 4.57344C6.65606 4.53241 6.56764 4.51739 6.48117 4.5306C6.3947 4.54381 6.31479 4.58455 6.25331 4.64677L4.63331 6.22677C4.57109 6.28825 4.53035 6.36815 4.51714 6.45462C4.50393 6.54109 4.51896 6.62951 4.55998 6.70677L5.63998 8.70677C5.36002 9.20716 5.13643 9.73707 4.97331 10.2868L2.76665 10.9534C2.68393 10.979 2.61152 11.0303 2.55996 11.0998C2.5084 11.1693 2.48038 11.2535 2.47998 11.3401V13.5934C2.48038 13.68 2.5084 13.7642 2.55996 13.8337C2.61152 13.9033 2.68393 13.9546 2.76665 13.9801L4.98665 14.6468C5.15154 15.1873 5.3751 15.7082 5.65331 16.2001L4.55998 18.2934C4.51896 18.3707 4.50393 18.4591 4.51714 18.5456C4.53035 18.6321 4.57109 18.712 4.63331 18.7734L6.22665 20.3668C6.28813 20.429 6.36803 20.4697 6.4545 20.4829C6.54097 20.4961 6.62939 20.4811 6.70665 20.4401L8.76665 19.3401C9.25396 19.6031 9.76799 19.8131 10.3 19.9668L10.9666 22.2134C10.9922 22.2962 11.0435 22.3686 11.113 22.4201C11.1826 22.4717 11.2667 22.4997 11.3533 22.5001H13.6066C13.6932 22.4997 13.7774 22.4717 13.8469 22.4201C13.9165 22.3686 13.9678 22.2962 13.9933 22.2134L14.66 19.9601C15.1874 19.8057 15.697 19.5956 16.18 19.3334L18.2533 20.4401C18.3306 20.4811 18.419 20.4961 18.5055 20.4829C18.5919 20.4697 18.6718 20.429 18.7333 20.3668L20.3266 18.7734C20.3889 18.712 20.4296 18.6321 20.4428 18.5456C20.456 18.4591 20.441 18.3707 20.4 18.2934L19.2933 16.2268C19.5582 15.7419 19.7705 15.2301 19.9266 14.7001L22.1733 14.0334C22.256 14.0079 22.3284 13.9566 22.38 13.8871C22.4316 13.8175 22.4596 13.7333 22.46 13.6468V11.3734C22.4639 11.2905 22.4424 11.2084 22.3983 11.1381C22.3542 11.0678 22.2897 11.0127 22.2133 10.9801ZM12.5 16.1668C11.7748 16.1668 11.0659 15.9517 10.4629 15.5488C9.85991 15.1459 9.38994 14.5733 9.11242 13.9033C8.8349 13.2333 8.76229 12.496 8.90377 11.7848C9.04525 11.0735 9.39446 10.4202 9.90726 9.90738C10.42 9.39459 11.0734 9.04537 11.7846 8.90389C12.4959 8.76241 13.2332 8.83502 13.9032 9.11254C14.5731 9.39007 15.1458 9.86003 15.5487 10.463C15.9516 11.066 16.1666 11.7749 16.1666 12.5001C16.1666 13.4726 15.7803 14.4052 15.0927 15.0928C14.4051 15.7805 13.4724 16.1668 12.5 16.1668Z" fill="#C8C8C8"/>
</g>
<defs>
<clipPath id="clip0_327_1587">
<rect width="24" height="24" fill="white" transform="translate(0.5 0.5)"/>
</clipPath>
</defs>
</svg>
