<svg width="25" height="25" viewBox="0 0 25 25" fill="none" xmlns="http://www.w3.org/2000/svg">
<g clip-path="url(#clip0_327_1584)">
<path d="M20.5001 3.16675H4.50008C4.14646 3.16675 3.80732 3.30722 3.55727 3.55727C3.30722 3.80732 3.16675 4.14646 3.16675 4.50008V20.5001C3.16675 20.8537 3.30722 21.1928 3.55727 21.4429C3.80732 21.6929 4.14646 21.8334 4.50008 21.8334H20.5001C20.8537 21.8334 21.1928 21.6929 21.4429 21.4429C21.6929 21.1928 21.8334 20.8537 21.8334 20.5001V4.50008C21.8334 4.14646 21.6929 3.80732 21.4429 3.55727C21.1928 3.30722 20.8537 3.16675 20.5001 3.16675ZM13.8334 5.16675H15.1667V7.16675H13.8334V5.16675ZM9.83342 5.16675H11.1667V7.16675H9.83342V5.16675ZM7.16675 19.8334H5.83341V17.8334H7.16675V19.8334ZM7.16675 7.16675H5.83341V5.16675H7.16675V7.16675ZM11.1667 19.8334H9.83342V17.8334H11.1667V19.8334ZM15.1667 19.8334H13.8334V17.8334H15.1667V19.8334ZM17.2734 13.0601L10.7601 15.9667C10.6588 16.0097 10.5484 16.0268 10.4388 16.0167C10.3293 16.0066 10.2239 15.9695 10.1321 15.9088C10.0404 15.8481 9.96507 15.7656 9.91295 15.6687C9.86083 15.5718 9.8335 15.4635 9.83342 15.3534V9.54675C9.83365 9.43555 9.86169 9.32618 9.91499 9.22859C9.96828 9.131 10.0451 9.0483 10.1386 8.988C10.232 8.9277 10.339 8.89173 10.4499 8.88336C10.5608 8.87499 10.672 8.89449 10.7734 8.94008L17.2734 11.8334C17.3937 11.8846 17.4962 11.9701 17.5683 12.0791C17.6404 12.1882 17.6788 12.316 17.6788 12.4467C17.6788 12.5775 17.6404 12.7053 17.5683 12.8143C17.4962 12.9234 17.3937 13.0089 17.2734 13.0601ZM19.1667 19.8334H17.8334V17.8334H19.1667V19.8334ZM19.1667 7.16675H17.8334V5.16675H19.1667V7.16675Z" />
</g>
<defs>
<clipPath id="clip0_327_1584">
<rect width="24" height="24" fill="white" transform="translate(0.5 0.5)"/>
</clipPath>
</defs>
</svg>
