<svg width="24" height="24" viewBox="0 0 24 24" fill="none" xmlns="http://www.w3.org/2000/svg">
<g id="icon / happy / face / line" clip-path="url(#clip0_131_2155)">
<path id="Vector" d="M11.9999 1.33331C9.89026 1.33331 7.82797 1.9589 6.07384 3.13097C4.31972 4.30304 2.95254 5.96894 2.14521 7.91802C1.33787 9.8671 1.12664 12.0118 1.53821 14.0809C1.94979 16.1501 2.96569 18.0507 4.45745 19.5425C5.94921 21.0342 7.84983 22.0501 9.91896 22.4617C11.9881 22.8733 14.1328 22.662 16.0819 21.8547C18.031 21.0474 19.6969 19.6802 20.8689 17.9261C22.041 16.1719 22.6666 14.1096 22.6666 12C22.6666 9.171 21.5428 6.4579 19.5424 4.45751C17.542 2.45712 14.8289 1.33331 11.9999 1.33331ZM11.9999 21.3333C10.154 21.3333 8.34946 20.7859 6.8146 19.7604C5.27974 18.7348 4.08347 17.2771 3.37705 15.5717C2.67063 13.8662 2.4858 11.9896 2.84593 10.1791C3.20606 8.36865 4.09497 6.70561 5.40026 5.40032C6.70555 4.09503 8.36859 3.20611 10.1791 2.84598C11.9896 2.48586 13.8662 2.67069 15.5716 3.3771C17.2771 4.08352 18.7347 5.2798 19.7603 6.81466C20.7859 8.34952 21.3333 10.154 21.3333 12C21.3333 14.4753 20.3499 16.8493 18.5996 18.5996C16.8492 20.35 14.4753 21.3333 11.9999 21.3333Z" fill="black"/>
<path id="Vector_2" d="M7.26009 10.5934C7.99647 10.5934 8.59342 9.99641 8.59342 9.26003C8.59342 8.52365 7.99647 7.9267 7.26009 7.9267C6.52371 7.9267 5.92676 8.52365 5.92676 9.26003C5.92676 9.99641 6.52371 10.5934 7.26009 10.5934Z" fill="black"/>
<path id="Vector_3" d="M16.7 10.5934C17.4364 10.5934 18.0334 9.99641 18.0334 9.26003C18.0334 8.52365 17.4364 7.9267 16.7 7.9267C15.9637 7.9267 15.3667 8.52365 15.3667 9.26003C15.3667 9.99641 15.9637 10.5934 16.7 10.5934Z" fill="black"/>
<path id="Vector_4" d="M12.0867 18.8066C13.3098 18.8082 14.5018 18.4219 15.4913 17.7031C16.4808 16.9843 17.2168 15.9702 17.5934 14.8066H6.58008C6.95671 15.9702 7.69273 16.9843 8.68223 17.7031C9.67174 18.4219 10.8637 18.8082 12.0867 18.8066Z" fill="black"/>
</g>
<defs>
<clipPath id="clip0_131_2155">
<rect width="24" height="24" fill="white"/>
</clipPath>
</defs>
</svg>
