<svg width="25" height="25" viewBox="0 0 25 25" xmlns="http://www.w3.org/2000/svg">
<g clip-path="url(#clip0_327_1577)">
<path d="M22.5 13.1666C22.4123 13.1671 22.3253 13.1502 22.2441 13.1171C22.1629 13.0839 22.089 13.035 22.0267 12.9732L12.5 3.43988L2.97335 12.9732C2.84582 13.0824 2.68177 13.1395 2.51398 13.133C2.3462 13.1265 2.18704 13.057 2.06831 12.9383C1.94958 12.8195 1.88002 12.6604 1.87354 12.4926C1.86706 12.3248 1.92413 12.1608 2.03335 12.0332L12.0334 2.03322C12.1583 1.90905 12.3272 1.83936 12.5034 1.83936C12.6795 1.83936 12.8484 1.90905 12.9734 2.03322L22.9734 12.0332C23.0651 12.1268 23.1272 12.2454 23.1519 12.3741C23.1767 12.5028 23.1629 12.6359 23.1124 12.7568C23.0619 12.8777 22.9769 12.9811 22.868 13.054C22.7591 13.1269 22.6311 13.166 22.5 13.1666Z" />
<path d="M12.5 5.69336L4.5 13.72V21.8334C4.5 22.187 4.64048 22.5261 4.89052 22.7762C5.14057 23.0262 5.47971 23.1667 5.83333 23.1667H10.5V16.5H14.5V23.1667H19.1667C19.5203 23.1667 19.8594 23.0262 20.1095 22.7762C20.3595 22.5261 20.5 22.187 20.5 21.8334V13.6734L12.5 5.69336Z"/>
</g>
<defs>
<clipPath id="clip0_327_1577">
<rect width="24" height="24"  transform="translate(0.5 0.5)"/>
</clipPath>
</defs>
</svg>
