<svg width="24" height="24" viewBox="0 0 24 24" fill="none" xmlns="http://www.w3.org/2000/svg">
<g clip-path="url(#clip0_329_2897)">
<path d="M11.9999 1.33331C9.89026 1.33331 7.82797 1.9589 6.07384 3.13097C4.31972 4.30304 2.95254 5.96894 2.14521 7.91802C1.33787 9.8671 1.12664 12.0118 1.53821 14.0809C1.94979 16.1501 2.96569 18.0507 4.45745 19.5425C5.94921 21.0342 7.84983 22.0501 9.91896 22.4617C11.9881 22.8733 14.1328 22.662 16.0819 21.8547C18.031 21.0474 19.6969 19.6802 20.8689 17.9261C22.041 16.1719 22.6666 14.1096 22.6666 12C22.6666 9.171 21.5428 6.4579 19.5424 4.45751C17.542 2.45712 14.8289 1.33331 11.9999 1.33331ZM11.9999 21.3333C10.154 21.3333 8.34946 20.7859 6.8146 19.7604C5.27974 18.7348 4.08347 17.2771 3.37705 15.5717C2.67063 13.8662 2.4858 11.9896 2.84593 10.1791C3.20606 8.36865 4.09497 6.70561 5.40026 5.40032C6.70555 4.09503 8.36859 3.20611 10.1791 2.84598C11.9896 2.48586 13.8662 2.67069 15.5716 3.3771C17.2771 4.08352 18.7347 5.2798 19.7603 6.81466C20.7859 8.34952 21.3333 10.154 21.3333 12C21.3333 14.4753 20.3499 16.8493 18.5996 18.5996C16.8492 20.35 14.4753 21.3333 11.9999 21.3333Z" fill="black"/>
<path d="M16.7732 10.72C17.436 10.72 17.9732 10.1827 17.9732 9.52001C17.9732 8.85727 17.436 8.32001 16.7732 8.32001C16.1105 8.32001 15.5732 8.85727 15.5732 9.52001C15.5732 10.1827 16.1105 10.72 16.7732 10.72Z" fill="black"/>
<path d="M7.60674 10.72C8.26948 10.72 8.80674 10.1827 8.80674 9.52001C8.80674 8.85727 8.26948 8.32001 7.60674 8.32001C6.944 8.32001 6.40674 8.85727 6.40674 9.52001C6.40674 10.1827 6.944 10.72 7.60674 10.72Z" fill="black"/>
<path d="M12.1066 13.3333C11.1502 13.3335 10.2077 13.5623 9.35767 14.0006C8.50763 14.439 7.7747 15.0742 7.21998 15.8533C7.11743 15.9974 7.07632 16.1764 7.1057 16.3508C7.13508 16.5252 7.23255 16.6808 7.37665 16.7833C7.52075 16.8859 7.69968 16.927 7.87409 16.8976C8.0485 16.8682 8.2041 16.7707 8.30665 16.6266C8.73291 16.0279 9.29457 15.5383 9.94587 15.1978C10.5972 14.8572 11.3197 14.6753 12.0546 14.6669C12.7895 14.6584 13.5161 14.8237 14.175 15.1492C14.834 15.4747 15.4067 15.9512 15.8466 16.54C15.9527 16.6814 16.1107 16.7749 16.2857 16.7999C16.4607 16.825 16.6385 16.7794 16.78 16.6733C16.9214 16.5672 17.0149 16.4093 17.0399 16.2343C17.065 16.0592 17.0194 15.8814 16.9133 15.74C16.3545 14.9927 15.629 14.386 14.7946 13.9682C13.9602 13.5505 13.0398 13.3331 12.1066 13.3333Z" fill="black"/>
</g>
<defs>
<clipPath id="clip0_329_2897">
<rect width="24" height="24" fill="white"/>
</clipPath>
</defs>
</svg>
