<svg width="21" height="20" viewBox="0 0 21 20" fill="none" xmlns="http://www.w3.org/2000/svg">
<g clip-path="url(#clip0_286_1703)">
<path d="M7.16089 5.55567C8.78311 4.54456 11.2164 3.33345 12.3664 3.33345H15.6998C16.5422 4.31839 17.1687 5.46909 17.5387 6.71123C18.0034 8.13257 18.2507 9.61599 18.272 11.1112H13.272V16.6668C13.2513 16.872 13.1752 17.0677 13.0519 17.2331C12.9286 17.3985 12.7628 17.5272 12.572 17.6057C12.1442 16.4946 11.1164 13.9557 10.222 12.7612C9.44241 11.7504 8.37533 10.999 7.16089 10.6057V11.789C8.02405 12.1349 8.7755 12.7115 9.33311 13.4557C10.3776 14.8501 11.7164 18.5168 11.7276 18.5501C11.7744 18.6803 11.8681 18.7883 11.9904 18.8531C12.1127 18.9178 12.2547 18.9346 12.3887 18.9001C13.1331 18.6779 14.3831 18.0001 14.3831 16.6668V12.2223H18.8276C18.9749 12.2223 19.1162 12.1638 19.2204 12.0596C19.3246 11.9554 19.3831 11.8141 19.3831 11.6668C19.4264 9.85423 19.1635 8.04737 18.6053 6.32234C17.5553 3.32234 16.3276 2.35567 16.272 2.31123C16.1716 2.24582 16.0527 2.21464 15.9331 2.22234H12.3664C11.0164 2.22234 8.73311 3.33345 7.16089 4.23901V5.55567Z" fill="#4A4A4A"/>
<path d="M1.60522 2.77783H5.49411C5.64146 2.77783 5.78276 2.83636 5.88695 2.94055C5.99114 3.04474 6.04967 3.18605 6.04967 3.33339V12.2223C6.04967 12.3696 5.99114 12.5109 5.88695 12.6151C5.78276 12.7193 5.64146 12.7778 5.49411 12.7778H1.60522V2.77783ZM4.93856 3.88894H2.71634V11.6667H4.93856V3.88894Z" fill="#4A4A4A"/>
</g>
<defs>
<clipPath id="clip0_286_1703">
<rect width="20" height="20" fill="white" transform="translate(0.494141)"/>
</clipPath>
</defs>
</svg>
