<svg width="21" height="21" viewBox="0 0 21 21" fill="none" xmlns="http://www.w3.org/2000/svg">
<g clip-path="url(#clip0_286_1692)">
<path d="M7.16088 14.9443C8.7831 15.9555 11.2164 17.1666 12.3664 17.1666H15.6998C16.5422 16.1816 17.1686 15.0309 17.5387 13.7888C18.0034 12.3675 18.2506 10.884 18.272 9.38879H13.272V3.83323C13.2513 3.62802 13.1752 3.43228 13.0519 3.26692C12.9286 3.10156 12.7627 2.97279 12.572 2.89435C12.1442 4.00546 11.1164 6.54435 10.222 7.73879C9.4424 8.74963 8.37531 9.50104 7.16088 9.89435V8.71101C8.02404 8.36508 8.77549 7.78852 9.3331 7.04435C10.3775 5.6499 11.7164 1.98323 11.7275 1.9499C11.7765 1.82177 11.8711 1.71627 11.9931 1.6537C12.1152 1.59113 12.2561 1.57593 12.3887 1.61101C13.1331 1.82212 14.3831 2.4999 14.3831 3.83323V8.27768H18.8275C18.9749 8.27768 19.1162 8.33621 19.2204 8.4404C19.3246 8.54458 19.3831 8.68589 19.3831 8.83323C19.4264 10.6458 19.1635 12.4527 18.6053 14.1777C17.5553 17.1777 16.3275 18.1443 16.272 18.1888C16.175 18.264 16.0558 18.3051 15.9331 18.3055H12.3664C11.0164 18.3055 8.72754 17.1943 7.16088 16.2888V14.9443Z" fill="black"/>
<path d="M1.60536 17.7222H5.49425C5.64159 17.7222 5.7829 17.6636 5.88709 17.5595C5.99127 17.4553 6.0498 17.314 6.0498 17.1666V8.27772C6.0498 8.13038 5.99127 7.98907 5.88709 7.88489C5.7829 7.7807 5.64159 7.72217 5.49425 7.72217H1.60536V17.7222ZM4.93869 16.6111H2.71647V8.83328H4.93869V16.6111Z" fill="black"/>
</g>
<defs>
<clipPath id="clip0_286_1692">
<rect width="20" height="20" fill="white" transform="matrix(-1 0 0 1 20.4941 0.5)"/>
</clipPath>
</defs>
</svg>
